<svg width="16" height="14" viewBox="0 0 16 14" fill="none" xmlns="http://www.w3.org/2000/svg">
<path d="M10.1187 0.0875365C8.925 -0.253089 7.67812 0.437536 7.3375 1.63129L7.15938 2.25629C7.04375 2.66254 6.83438 3.03754 6.55 3.35004L4.94688 5.11254C4.66875 5.41879 4.69062 5.89379 4.99687 6.17191C5.30312 6.45004 5.77813 6.42816 6.05625 6.12191L7.65938 4.35941C8.1 3.87504 8.42188 3.29691 8.6 2.66879L8.77812 2.04379C8.89062 1.64691 9.30625 1.41566 9.70625 1.52816C10.1062 1.64066 10.3344 2.05629 10.2219 2.45629L10.0437 3.08129C9.86562 3.70316 9.58437 4.29066 9.2125 4.81566C9.05 5.04379 9.03125 5.34379 9.15938 5.59379C9.2875 5.84379 9.54375 6.00004 9.825 6.00004H14C14.275 6.00004 14.5 6.22504 14.5 6.50004C14.5 6.71254 14.3656 6.89691 14.175 6.96879C13.9438 7.05629 13.7688 7.25004 13.7094 7.49066C13.65 7.73129 13.7125 7.98441 13.875 8.16879C13.9531 8.25629 14 8.37191 14 8.50004C14 8.74379 13.825 8.94691 13.5938 8.99066C13.3375 9.04066 13.1219 9.21879 13.0312 9.46566C12.9406 9.71254 12.9812 9.98754 13.1438 10.1938C13.2094 10.2782 13.25 10.3844 13.25 10.5032C13.25 10.7125 13.1187 10.8969 12.9312 10.9688C12.5719 11.1094 12.3781 11.4969 12.4812 11.8688C12.4937 11.9094 12.5 11.9563 12.5 12.0032C12.5 12.2782 12.275 12.5032 12 12.5032H8.95312C8.55937 12.5032 8.17188 12.3875 7.84375 12.1688L5.91563 10.8844C5.57188 10.6532 5.10625 10.7469 4.875 11.0938C4.64375 11.4407 4.7375 11.9032 5.08437 12.1344L7.0125 13.4188C7.5875 13.8032 8.2625 14.0063 8.95312 14.0063H12C13.0844 14.0063 13.9656 13.1438 14 12.0688C14.4563 11.7032 14.75 11.1407 14.75 10.5063C14.75 10.3657 14.7344 10.2313 14.7094 10.1C15.1906 9.73441 15.5 9.15629 15.5 8.50629C15.5 8.30316 15.4688 8.10629 15.4125 7.92191C15.775 7.55316 16 7.05316 16 6.50004C16 5.39691 15.1062 4.50004 14 4.50004H11.1156C11.2625 4.17504 11.3875 3.83754 11.4844 3.49379L11.6625 2.86879C12.0031 1.67504 11.3125 0.428161 10.1187 0.0875365ZM1 5.00004C0.446875 5.00004 0 5.44691 0 6.00004V13C0 13.5532 0.446875 14 1 14H3C3.55312 14 4 13.5532 4 13V6.00004C4 5.44691 3.55312 5.00004 3 5.00004H1Z" fill="white"/>
</svg>
