<svg width="30" height="35" viewBox="0 0 30 35" fill="none" xmlns="http://www.w3.org/2000/svg" style="left: 0; top: 0; position: absolute; ">
<g clip-path="url(#clip0_795_1456)">
<path d="M9.64286 9.90723V13.0947H20.3571V9.90723C20.3571 6.97207 17.9598 4.59473 15 4.59473C12.0402 4.59473 9.64286 6.97207 9.64286 9.90723ZM5.35714 13.0947V9.90723C5.35714 4.62793 9.67634 0.344727 15 0.344727C20.3237 0.344727 24.6429 4.62793 24.6429 9.90723V13.0947H25.7143C28.0781 13.0947 30 15.0006 30 17.3447V30.0947C30 32.4389 28.0781 34.3447 25.7143 34.3447H4.28571C1.92188 34.3447 0 32.4389 0 30.0947V17.3447C0 15.0006 1.92188 13.0947 4.28571 13.0947H5.35714Z" fill="#FF509A"/>
</g>
<defs>
<clipPath id="clip0_795_1456">
<rect width="30" height="34" fill="white" transform="translate(0 0.344727)"/>
</clipPath>
</defs>
</svg>
