<svg width="34" height="34" viewBox="0 0 34 34" fill="none" xmlns="http://www.w3.org/2000/svg">
<g clip-path="url(#clip0_361_827)">
<path d="M0 17C0 12.4913 1.79107 8.1673 4.97919 4.97919C8.1673 1.79107 12.4913 0 17 0C21.5087 0 25.8327 1.79107 29.0208 4.97919C32.2089 8.1673 34 12.4913 34 17C34 21.5087 32.2089 25.8327 29.0208 29.0208C25.8327 32.2089 21.5087 34 17 34C12.4913 34 8.1673 32.2089 4.97919 29.0208C1.79107 25.8327 0 21.5087 0 17ZM12.5043 9.76836C11.9996 10.0473 11.6875 10.5852 11.6875 11.1562V22.8438C11.6875 23.4215 11.9996 23.9527 12.5043 24.2316C13.009 24.5105 13.6199 24.5039 14.118 24.1984L23.6805 18.3547C24.152 18.0625 24.4441 17.5512 24.4441 16.9934C24.4441 16.4355 24.152 15.9242 23.6805 15.632L14.118 9.78828C13.6266 9.48945 13.009 9.47617 12.5043 9.75508V9.76836Z" fill="#FF509A"/>
</g>
<defs>
<clipPath id="clip0_361_827">
<rect width="34" height="34" fill="white"/>
</clipPath>
</defs>
</svg>
