<svg width="18" height="17" viewBox="0 0 18 17" fill="none" xmlns="http://www.w3.org/2000/svg">
<g clip-path="url(#clip0_355_618)">
<path d="M4.73764 15.175C4.54701 15.3813 4.28139 15.5 4.00014 15.5C3.71889 15.5 3.45326 15.3813 3.26264 15.175L0.512637 12.175C0.140762 11.7688 0.165762 11.1344 0.575137 10.7625C0.984512 10.3906 1.61576 10.4156 1.98764 10.825L3.00014 11.9281V2.5C3.00014 1.94687 3.44701 1.5 4.00014 1.5C4.55326 1.5 5.00014 1.94687 5.00014 2.5V11.9281L6.01264 10.8219C6.38451 10.4156 7.01889 10.3875 7.42514 10.7594C7.83139 11.1312 7.85951 11.7656 7.48764 12.1719L4.73764 15.1719V15.175ZM10.0001 1.5H11.0001C11.5533 1.5 12.0001 1.94687 12.0001 2.5C12.0001 3.05313 11.5533 3.5 11.0001 3.5H10.0001C9.44701 3.5 9.00014 3.05313 9.00014 2.5C9.00014 1.94687 9.44701 1.5 10.0001 1.5ZM10.0001 5.5H13.0001C13.5533 5.5 14.0001 5.94688 14.0001 6.5C14.0001 7.05312 13.5533 7.5 13.0001 7.5H10.0001C9.44701 7.5 9.00014 7.05312 9.00014 6.5C9.00014 5.94688 9.44701 5.5 10.0001 5.5ZM10.0001 9.5H15.0001C15.5533 9.5 16.0001 9.94687 16.0001 10.5C16.0001 11.0531 15.5533 11.5 15.0001 11.5H10.0001C9.44701 11.5 9.00014 11.0531 9.00014 10.5C9.00014 9.94687 9.44701 9.5 10.0001 9.5ZM10.0001 13.5H17.0001C17.5533 13.5 18.0001 13.9469 18.0001 14.5C18.0001 15.0531 17.5533 15.5 17.0001 15.5H10.0001C9.44701 15.5 9.00014 15.0531 9.00014 14.5C9.00014 13.9469 9.44701 13.5 10.0001 13.5Z" fill="#1E3050"/>
</g>
<defs>
<clipPath id="clip0_355_618">
<rect width="18" height="16" fill="white" transform="translate(0 0.5)"/>
</clipPath>
</defs>
</svg>
