<svg width="17" height="15" viewBox="0 0 17 15" fill="none" xmlns="http://www.w3.org/2000/svg">
<path fill-rule="evenodd" clip-rule="evenodd" d="M0.846357 0.0687084L16.4506 7.02316C16.5466 7.05561 16.6308 7.11631 16.6919 7.19731C16.753 7.27831 16.7883 7.37583 16.7931 7.47707C16.7979 7.57832 16.772 7.67857 16.7187 7.76469C16.6655 7.8508 16.5875 7.91876 16.4949 7.95965L0.869684 14.9537C0.779939 14.9941 0.68025 15.0071 0.58299 14.9913C0.48573 14.9755 0.395183 14.9315 0.322589 14.8647C0.249994 14.798 0.198548 14.7114 0.174637 14.6158C0.150728 14.5202 0.155406 14.4197 0.188091 14.3269L2.03736 8.99967L10.4163 7.52367L2.05307 6.02583L0.168356 0.693745C0.135736 0.601051 0.130941 0.500906 0.154564 0.405665C0.178186 0.310425 0.229192 0.224256 0.301289 0.157792C0.373386 0.0913268 0.463419 0.047474 0.560279 0.0316437C0.657139 0.0158133 0.756589 0.0286981 0.846357 0.0687084Z" fill="#FF509A"/>
</svg>
