<svg width="17" height="18" viewBox="0 0 17 18" fill="none" xmlns="http://www.w3.org/2000/svg">
<path d="M9.71457 2.125C9.71457 1.43359 9.17193 0.875 8.50028 0.875C7.82863 0.875 7.28599 1.43359 7.28599 2.125V7.75H1.82171C1.15006 7.75 0.607422 8.30859 0.607422 9C0.607422 9.69141 1.15006 10.25 1.82171 10.25H7.28599V15.875C7.28599 16.5664 7.82863 17.125 8.50028 17.125C9.17193 17.125 9.71457 16.5664 9.71457 15.875V10.25H15.1789C15.8505 10.25 16.3931 9.69141 16.3931 9C16.3931 8.30859 15.8505 7.75 15.1789 7.75H9.71457V2.125Z" fill="white"/>
</svg>
